# xmcd CD database file generated by Grip 2.96
# 
# Track frame offsets:
#       150
#       16185
#       29397
#       42442
#       57635
#       73500
#       86962
#       101975
#       120677
#       136925
#       153240
# 
# Disc length: 2237 seconds
# 
# Revision: 0
# Processed by: cddbd v1.4PL0 Copyright (c) Steve Scherf et al.
# Submitted via: Grip 2.96
# 
DISCID=9808bb0b
DTITLE=Beverly Baker - Can You Hear Me Now
DYEAR=1900
DGENRE=
TTITLE0=If Only I Could
TTITLE1=My Life Has a Life of Its Own
TTITLE2=Tenderly
TTITLE3=Don't You
TTITLE4=Learn How to Fall
TTITLE5=Can You Hear Me Now
TTITLE6=Powerless
TTITLE7=Roseland
TTITLE8=Soft Place to Fall
TTITLE9=The Portrait
TTITLE10=Here I Go Again
EXTD=
EXTT0=
EXTT1=
EXTT2=
EXTT3=
EXTT4=
EXTT5=
EXTT6=
EXTT7=
EXTT8=
EXTT9=
EXTT10=
PLAYORDER=
